<svg width="14" height="18" viewBox="0 0 14 18" fill="none" xmlns="http://www.w3.org/2000/svg">
<path d="M7.07913 17.4102H6.8964C6.85205 17.3756 6.80381 17.3446 6.76385 17.3061C6.29167 16.8554 5.81218 16.4105 5.3512 15.951C4.95504 15.5557 4.56131 15.1563 4.19974 14.7353C3.59892 14.0354 3.00491 13.3293 2.44404 12.6028C1.84468 11.8263 1.33351 10.998 0.904698 10.1325C0.474423 9.26388 0.105545 8.37227 0.0319648 7.41203C-0.00555644 6.92151 -0.0172514 6.42302 0.0368376 5.93516C0.0953123 5.40833 0.276096 4.89966 0.49294 4.40294C0.812113 3.67026 1.27504 3.02523 1.85832 2.44883C2.51031 1.80469 3.27438 1.29247 4.16466 0.959115C4.63099 0.784245 5.12608 0.671797 5.61337 0.546068C5.85262 0.483203 6.1026 0.453984 6.3482 0.410156C6.76239 0.410156 7.17659 0.410156 7.59078 0.410156C7.83053 0.454427 8.06833 0.507995 8.30953 0.541198C8.94301 0.628411 9.53799 0.824974 10.1081 1.07865C11.0003 1.47531 11.7503 2.03799 12.3935 2.72641C12.9144 3.28333 13.2921 3.91242 13.583 4.58667C13.8037 5.09888 13.9221 5.63766 13.9816 6.18263C14.0171 6.50581 13.9913 6.83518 13.9855 7.16146C13.9825 7.31906 13.9874 7.48242 13.9465 7.63339C13.7998 8.17349 13.6619 8.71758 13.4714 9.24529C13.0879 10.3069 12.4866 11.2751 11.8287 12.2128C11.1748 13.1451 10.4638 14.0407 9.66517 14.8761C9.07263 15.4959 8.46888 16.1073 7.85977 16.7133C7.61417 16.9577 7.34032 17.1786 7.07913 17.4102ZM3.79042 6.78516C3.73341 8.31648 5.24303 9.8031 7.16489 9.71146C8.61799 9.64195 10.4078 8.45461 10.1861 6.45844C10.035 5.09711 8.78366 3.86948 6.95292 3.86948C5.20404 3.86948 3.77337 5.16927 3.79042 6.78471V6.78516Z" fill="#E21E26"/>
</svg>
