<svg width="143" height="29" viewBox="0 0 143 29" fill="none" xmlns="http://www.w3.org/2000/svg">
<rect width="143" height="29" rx="14.5" fill="black"/>
<path d="M23.146 17.712H26.436V19H21.55V9.27H23.146V17.712ZM31.1167 19.126C30.3887 19.126 29.7307 18.9627 29.1427 18.636C28.5547 18.3 28.0927 17.8333 27.7567 17.236C27.4207 16.6293 27.2527 15.9293 27.2527 15.136C27.2527 14.352 27.4254 13.6567 27.7707 13.05C28.116 12.4433 28.5874 11.9767 29.1847 11.65C29.782 11.3233 30.4494 11.16 31.1867 11.16C31.924 11.16 32.5914 11.3233 33.1887 11.65C33.786 11.9767 34.2574 12.4433 34.6027 13.05C34.948 13.6567 35.1207 14.352 35.1207 15.136C35.1207 15.92 34.9434 16.6153 34.5887 17.222C34.234 17.8287 33.7487 18.3 33.1327 18.636C32.526 18.9627 31.854 19.126 31.1167 19.126ZM31.1167 17.74C31.5274 17.74 31.91 17.642 32.2647 17.446C32.6287 17.25 32.9227 16.956 33.1467 16.564C33.3707 16.172 33.4827 15.696 33.4827 15.136C33.4827 14.576 33.3754 14.1047 33.1607 13.722C32.946 13.33 32.6614 13.036 32.3067 12.84C31.952 12.644 31.5694 12.546 31.1587 12.546C30.748 12.546 30.3654 12.644 30.0107 12.84C29.6654 13.036 29.39 13.33 29.1847 13.722C28.9794 14.1047 28.8767 14.576 28.8767 15.136C28.8767 15.9667 29.0867 16.6107 29.5067 17.068C29.936 17.516 30.4727 17.74 31.1167 17.74ZM39.8064 11.16C40.4038 11.16 40.9311 11.2813 41.3884 11.524C41.8551 11.7573 42.2191 12.0513 42.4804 12.406V11.286H44.0904V19.126C44.0904 19.8353 43.9411 20.4653 43.6424 21.016C43.3438 21.576 42.9098 22.0147 42.3404 22.332C41.7804 22.6493 41.1084 22.808 40.3244 22.808C39.2791 22.808 38.4111 22.5607 37.7204 22.066C37.0298 21.5807 36.6378 20.918 36.5444 20.078H38.1264C38.2478 20.4793 38.5044 20.8013 38.8964 21.044C39.2978 21.296 39.7738 21.422 40.3244 21.422C40.9684 21.422 41.4864 21.226 41.8784 20.834C42.2798 20.442 42.4804 19.8727 42.4804 19.126V17.838C42.2098 18.202 41.8411 18.51 41.3744 18.762C40.9171 19.0047 40.3944 19.126 39.8064 19.126C39.1344 19.126 38.5184 18.958 37.9584 18.622C37.4078 18.2767 36.9691 17.8007 36.6424 17.194C36.3251 16.578 36.1664 15.8827 36.1664 15.108C36.1664 14.3333 36.3251 13.6473 36.6424 13.05C36.9691 12.4527 37.4078 11.9907 37.9584 11.664C38.5184 11.328 39.1344 11.16 39.8064 11.16ZM42.4804 15.136C42.4804 14.604 42.3684 14.142 42.1444 13.75C41.9298 13.358 41.6451 13.0593 41.2904 12.854C40.9358 12.6487 40.5531 12.546 40.1424 12.546C39.7318 12.546 39.3491 12.6487 38.9944 12.854C38.6398 13.05 38.3504 13.344 38.1264 13.736C37.9118 14.1187 37.8044 14.576 37.8044 15.108C37.8044 15.64 37.9118 16.1067 38.1264 16.508C38.3504 16.9093 38.6398 17.2173 38.9944 17.432C39.3584 17.6373 39.7411 17.74 40.1424 17.74C40.5531 17.74 40.9358 17.6373 41.2904 17.432C41.6451 17.2267 41.9298 16.928 42.1444 16.536C42.3684 16.1347 42.4804 15.668 42.4804 15.136ZM51.4194 9.27V19H49.8234V9.27H51.4194ZM57.4068 11.16C58.0135 11.16 58.5548 11.286 59.0308 11.538C59.5162 11.79 59.8942 12.1633 60.1648 12.658C60.4355 13.1527 60.5708 13.75 60.5708 14.45V19H58.9888V14.688C58.9888 13.9973 58.8162 13.47 58.4708 13.106C58.1255 12.7327 57.6542 12.546 57.0568 12.546C56.4595 12.546 55.9835 12.7327 55.6288 13.106C55.2835 13.47 55.1108 13.9973 55.1108 14.688V19H53.5148V11.286H55.1108V12.168C55.3722 11.8507 55.7035 11.6033 56.1048 11.426C56.5155 11.2487 56.9495 11.16 57.4068 11.16ZM67.7866 5.784L63.9786 21.45H62.4106L66.2046 5.784H67.7866ZM73.004 19.098C72.3507 19.098 71.7627 18.986 71.24 18.762C70.7174 18.5287 70.3067 18.202 70.008 17.782C69.7094 17.362 69.56 16.872 69.56 16.312H71.268C71.3054 16.732 71.4687 17.0773 71.758 17.348C72.0567 17.6187 72.472 17.754 73.004 17.754C73.5547 17.754 73.984 17.6233 74.292 17.362C74.6 17.0913 74.754 16.746 74.754 16.326C74.754 15.9993 74.656 15.7333 74.46 15.528C74.2734 15.3227 74.0354 15.164 73.746 15.052C73.466 14.94 73.074 14.8187 72.57 14.688C71.9354 14.52 71.4174 14.352 71.016 14.184C70.624 14.0067 70.288 13.736 70.008 13.372C69.728 13.008 69.588 12.5227 69.588 11.916C69.588 11.356 69.728 10.866 70.008 10.446C70.288 10.026 70.68 9.704 71.184 9.48C71.688 9.256 72.2714 9.144 72.934 9.144C73.8767 9.144 74.6467 9.382 75.244 9.858C75.8507 10.3247 76.1867 10.9687 76.252 11.79H74.488C74.46 11.4353 74.292 11.132 73.984 10.88C73.676 10.628 73.27 10.502 72.766 10.502C72.3087 10.502 71.9354 10.6187 71.646 10.852C71.3567 11.0853 71.212 11.4213 71.212 11.86C71.212 12.1587 71.3007 12.406 71.478 12.602C71.6647 12.7887 71.898 12.938 72.178 13.05C72.458 13.162 72.8407 13.2833 73.326 13.414C73.97 13.5913 74.4927 13.7687 74.894 13.946C75.3047 14.1233 75.65 14.3987 75.93 14.772C76.2194 15.136 76.364 15.626 76.364 16.242C76.364 16.7367 76.2287 17.2033 75.958 17.642C75.6967 18.0807 75.3094 18.4353 74.796 18.706C74.292 18.9673 73.6947 19.098 73.004 19.098ZM79.0593 10.264C78.7699 10.264 78.5273 10.166 78.3313 9.97C78.1353 9.774 78.0373 9.53133 78.0373 9.242C78.0373 8.95267 78.1353 8.71 78.3313 8.514C78.5273 8.318 78.7699 8.22 79.0593 8.22C79.3393 8.22 79.5773 8.318 79.7733 8.514C79.9693 8.71 80.0673 8.95267 80.0673 9.242C80.0673 9.53133 79.9693 9.774 79.7733 9.97C79.5773 10.166 79.3393 10.264 79.0593 10.264ZM79.8433 11.286V19H78.2473V11.286H79.8433ZM85.0467 11.16C85.644 11.16 86.1713 11.2813 86.6287 11.524C87.0953 11.7573 87.4593 12.0513 87.7207 12.406V11.286H89.3307V19.126C89.3307 19.8353 89.1813 20.4653 88.8827 21.016C88.584 21.576 88.15 22.0147 87.5807 22.332C87.0207 22.6493 86.3487 22.808 85.5647 22.808C84.5193 22.808 83.6513 22.5607 82.9607 22.066C82.27 21.5807 81.878 20.918 81.7847 20.078H83.3667C83.488 20.4793 83.7447 20.8013 84.1367 21.044C84.538 21.296 85.014 21.422 85.5647 21.422C86.2087 21.422 86.7267 21.226 87.1187 20.834C87.52 20.442 87.7207 19.8727 87.7207 19.126V17.838C87.45 18.202 87.0813 18.51 86.6147 18.762C86.1573 19.0047 85.6347 19.126 85.0467 19.126C84.3747 19.126 83.7587 18.958 83.1987 18.622C82.648 18.2767 82.2093 17.8007 81.8827 17.194C81.5653 16.578 81.4067 15.8827 81.4067 15.108C81.4067 14.3333 81.5653 13.6473 81.8827 13.05C82.2093 12.4527 82.648 11.9907 83.1987 11.664C83.7587 11.328 84.3747 11.16 85.0467 11.16ZM87.7207 15.136C87.7207 14.604 87.6087 14.142 87.3847 13.75C87.17 13.358 86.8853 13.0593 86.5307 12.854C86.176 12.6487 85.7933 12.546 85.3827 12.546C84.972 12.546 84.5893 12.6487 84.2347 12.854C83.88 13.05 83.5907 13.344 83.3667 13.736C83.152 14.1187 83.0447 14.576 83.0447 15.108C83.0447 15.64 83.152 16.1067 83.3667 16.508C83.5907 16.9093 83.88 17.2173 84.2347 17.432C84.5987 17.6373 84.9813 17.74 85.3827 17.74C85.7933 17.74 86.176 17.6373 86.5307 17.432C86.8853 17.2267 87.17 16.928 87.3847 16.536C87.6087 16.1347 87.7207 15.668 87.7207 15.136ZM95.319 11.16C95.9256 11.16 96.467 11.286 96.943 11.538C97.4283 11.79 97.8063 12.1633 98.077 12.658C98.3476 13.1527 98.483 13.75 98.483 14.45V19H96.901V14.688C96.901 13.9973 96.7283 13.47 96.383 13.106C96.0376 12.7327 95.5663 12.546 94.969 12.546C94.3716 12.546 93.8956 12.7327 93.541 13.106C93.1956 13.47 93.023 13.9973 93.023 14.688V19H91.427V11.286H93.023V12.168C93.2843 11.8507 93.6156 11.6033 94.017 11.426C94.4276 11.2487 94.8616 11.16 95.319 11.16ZM105.737 9.27V15.472C105.737 16.2093 105.929 16.7647 106.311 17.138C106.703 17.5113 107.245 17.698 107.935 17.698C108.635 17.698 109.177 17.5113 109.559 17.138C109.951 16.7647 110.147 16.2093 110.147 15.472V9.27H111.743V15.444C111.743 16.2373 111.571 16.9093 111.225 17.46C110.88 18.0107 110.418 18.4213 109.839 18.692C109.261 18.9627 108.621 19.098 107.921 19.098C107.221 19.098 106.582 18.9627 106.003 18.692C105.434 18.4213 104.981 18.0107 104.645 17.46C104.309 16.9093 104.141 16.2373 104.141 15.444V9.27H105.737ZM115.417 12.42C115.688 12.0653 116.057 11.7667 116.523 11.524C116.99 11.2813 117.517 11.16 118.105 11.16C118.777 11.16 119.389 11.328 119.939 11.664C120.499 11.9907 120.938 12.4527 121.255 13.05C121.573 13.6473 121.731 14.3333 121.731 15.108C121.731 15.8827 121.573 16.578 121.255 17.194C120.938 17.8007 120.499 18.2767 119.939 18.622C119.389 18.958 118.777 19.126 118.105 19.126C117.517 19.126 116.995 19.0093 116.537 18.776C116.08 18.5333 115.707 18.2347 115.417 17.88V22.668H113.821V11.286H115.417V12.42ZM120.107 15.108C120.107 14.576 119.995 14.1187 119.771 13.736C119.557 13.344 119.267 13.05 118.903 12.854C118.549 12.6487 118.166 12.546 117.755 12.546C117.354 12.546 116.971 12.6487 116.607 12.854C116.253 13.0593 115.963 13.358 115.739 13.75C115.525 14.142 115.417 14.604 115.417 15.136C115.417 15.668 115.525 16.1347 115.739 16.536C115.963 16.928 116.253 17.2267 116.607 17.432C116.971 17.6373 117.354 17.74 117.755 17.74C118.166 17.74 118.549 17.6373 118.903 17.432C119.267 17.2173 119.557 16.9093 119.771 16.508C119.995 16.1067 120.107 15.64 120.107 15.108Z" fill="white"/>
</svg>
